<svg xmlns="http://www.w3.org/2000/svg" width="1080" height="650" viewBox="0 0 1080 650">
<title>Posterior style-to-quality ratios by fold</title>
<desc>Each point is a posterior median; whiskers are 90 percent intervals. Dashed lines are prior medians. Missing micro-scale sites are not plotted.</desc>
<rect width="1080" height="650" fill="white"/>
<g font-family="sans-serif" fill="#222">
<text x="35" y="30" font-size="20">Posterior r by fold — common logarithmic scale</text>
<text x="35" y="53" font-size="13">Dots: median; whiskers: 90% interval; dashed line: prior median. No rₖ site in folds 1 and 21.</text>
<text x="65" y="87" font-size="15">qs_joint — r₀</text>
<line x1="65" y1="269.489" x2="350" y2="269.489" stroke="#ddd"/>
<text x="57" y="273.4893159736765" text-anchor="end" font-size="11">0.1</text>
<line x1="65" y1="229.056" x2="350" y2="229.056" stroke="#ddd"/>
<text x="57" y="233.0558384242076" text-anchor="end" font-size="11">0.3</text>
<line x1="65" y1="184.745" x2="350" y2="184.745" stroke="#ddd"/>
<text x="57" y="188.74465798683826" text-anchor="end" font-size="11">1.0</text>
<line x1="65" y1="144.311" x2="350" y2="144.311" stroke="#ddd"/>
<text x="57" y="148.31118043736933" text-anchor="end" font-size="11">3.0</text>
<line x1="65" y1="100.000" x2="350" y2="100.000" stroke="#ddd"/>
<text x="57" y="104.0" text-anchor="end" font-size="11">10.0</text>
<line x1="65" y1="184.74465798683826" x2="350" y2="184.74465798683826" stroke="#555" stroke-dasharray="5 4"/>
<line x1="65.000" x2="65.000" y1="257.256" y2="203.428" stroke="#2266aa" stroke-opacity="0.5"/>
<circle cx="65.000" cy="225.768" r="2.6" fill="#2266aa"/>
<line x1="72.308" x2="72.308" y1="256.424" y2="200.538" stroke="#2266aa" stroke-opacity="0.5"/>
<circle cx="72.308" cy="222.815" r="2.6" fill="#2266aa"/>
<line x1="79.615" x2="79.615" y1="254.928" y2="199.452" stroke="#2266aa" stroke-opacity="0.5"/>
<circle cx="79.615" cy="220.908" r="2.6" fill="#2266aa"/>
<line x1="86.923" x2="86.923" y1="251.701" y2="197.277" stroke="#2266aa" stroke-opacity="0.5"/>
<circle cx="86.923" cy="218.976" r="2.6" fill="#2266aa"/>
<line x1="94.231" x2="94.231" y1="253.569" y2="197.718" stroke="#2266aa" stroke-opacity="0.5"/>
<circle cx="94.231" cy="219.239" r="2.6" fill="#2266aa"/>
<line x1="101.538" x2="101.538" y1="250.416" y2="196.404" stroke="#2266aa" stroke-opacity="0.5"/>
<circle cx="101.538" cy="217.992" r="2.6" fill="#2266aa"/>
<line x1="108.846" x2="108.846" y1="248.333" y2="195.458" stroke="#2266aa" stroke-opacity="0.5"/>
<circle cx="108.846" cy="217.081" r="2.6" fill="#2266aa"/>
<line x1="116.154" x2="116.154" y1="250.822" y2="195.965" stroke="#2266aa" stroke-opacity="0.5"/>
<circle cx="116.154" cy="218.132" r="2.6" fill="#2266aa"/>
<line x1="123.462" x2="123.462" y1="249.464" y2="195.970" stroke="#2266aa" stroke-opacity="0.5"/>
<circle cx="123.462" cy="217.808" r="2.6" fill="#2266aa"/>
<line x1="130.769" x2="130.769" y1="249.094" y2="196.208" stroke="#2266aa" stroke-opacity="0.5"/>
<circle cx="130.769" cy="217.730" r="2.6" fill="#2266aa"/>
<line x1="138.077" x2="138.077" y1="251.668" y2="198.002" stroke="#2266aa" stroke-opacity="0.5"/>
<circle cx="138.077" cy="220.013" r="2.6" fill="#2266aa"/>
<line x1="145.385" x2="145.385" y1="251.917" y2="198.671" stroke="#2266aa" stroke-opacity="0.5"/>
<circle cx="145.385" cy="220.608" r="2.6" fill="#2266aa"/>
<line x1="152.692" x2="152.692" y1="253.250" y2="198.429" stroke="#2266aa" stroke-opacity="0.5"/>
<circle cx="152.692" cy="220.730" r="2.6" fill="#2266aa"/>
<line x1="160.000" x2="160.000" y1="252.515" y2="200.769" stroke="#2266aa" stroke-opacity="0.5"/>
<circle cx="160.000" cy="222.537" r="2.6" fill="#2266aa"/>
<line x1="167.308" x2="167.308" y1="253.505" y2="201.173" stroke="#2266aa" stroke-opacity="0.5"/>
<circle cx="167.308" cy="222.108" r="2.6" fill="#2266aa"/>
<line x1="174.615" x2="174.615" y1="254.114" y2="200.160" stroke="#2266aa" stroke-opacity="0.5"/>
<circle cx="174.615" cy="221.929" r="2.6" fill="#2266aa"/>
<line x1="181.923" x2="181.923" y1="251.035" y2="200.103" stroke="#2266aa" stroke-opacity="0.5"/>
<circle cx="181.923" cy="221.130" r="2.6" fill="#2266aa"/>
<line x1="189.231" x2="189.231" y1="250.799" y2="199.512" stroke="#2266aa" stroke-opacity="0.5"/>
<circle cx="189.231" cy="220.878" r="2.6" fill="#2266aa"/>
<line x1="196.538" x2="196.538" y1="250.747" y2="198.819" stroke="#2266aa" stroke-opacity="0.5"/>
<circle cx="196.538" cy="220.399" r="2.6" fill="#2266aa"/>
<line x1="203.846" x2="203.846" y1="250.782" y2="199.818" stroke="#2266aa" stroke-opacity="0.5"/>
<circle cx="203.846" cy="220.555" r="2.6" fill="#2266aa"/>
<line x1="211.154" x2="211.154" y1="230.558" y2="196.969" stroke="#2266aa" stroke-opacity="0.5"/>
<circle cx="211.154" cy="213.188" r="2.6" fill="#2266aa"/>
<line x1="218.462" x2="218.462" y1="231.777" y2="198.503" stroke="#2266aa" stroke-opacity="0.5"/>
<circle cx="218.462" cy="215.189" r="2.6" fill="#2266aa"/>
<line x1="225.769" x2="225.769" y1="230.414" y2="197.349" stroke="#2266aa" stroke-opacity="0.5"/>
<circle cx="225.769" cy="213.734" r="2.6" fill="#2266aa"/>
<line x1="233.077" x2="233.077" y1="230.355" y2="197.301" stroke="#2266aa" stroke-opacity="0.5"/>
<circle cx="233.077" cy="213.769" r="2.6" fill="#2266aa"/>
<line x1="240.385" x2="240.385" y1="231.117" y2="197.162" stroke="#2266aa" stroke-opacity="0.5"/>
<circle cx="240.385" cy="213.859" r="2.6" fill="#2266aa"/>
<line x1="247.692" x2="247.692" y1="230.806" y2="196.868" stroke="#2266aa" stroke-opacity="0.5"/>
<circle cx="247.692" cy="213.699" r="2.6" fill="#2266aa"/>
<line x1="255.000" x2="255.000" y1="230.842" y2="197.692" stroke="#2266aa" stroke-opacity="0.5"/>
<circle cx="255.000" cy="214.025" r="2.6" fill="#2266aa"/>
<line x1="262.308" x2="262.308" y1="231.974" y2="198.434" stroke="#2266aa" stroke-opacity="0.5"/>
<circle cx="262.308" cy="214.967" r="2.6" fill="#2266aa"/>
<line x1="269.615" x2="269.615" y1="232.354" y2="198.222" stroke="#2266aa" stroke-opacity="0.5"/>
<circle cx="269.615" cy="215.153" r="2.6" fill="#2266aa"/>
<line x1="276.923" x2="276.923" y1="233.274" y2="199.043" stroke="#2266aa" stroke-opacity="0.5"/>
<circle cx="276.923" cy="215.804" r="2.6" fill="#2266aa"/>
<line x1="284.231" x2="284.231" y1="232.020" y2="199.698" stroke="#2266aa" stroke-opacity="0.5"/>
<circle cx="284.231" cy="215.275" r="2.6" fill="#2266aa"/>
<line x1="291.538" x2="291.538" y1="232.237" y2="199.449" stroke="#2266aa" stroke-opacity="0.5"/>
<circle cx="291.538" cy="215.055" r="2.6" fill="#2266aa"/>
<line x1="298.846" x2="298.846" y1="232.380" y2="199.913" stroke="#2266aa" stroke-opacity="0.5"/>
<circle cx="298.846" cy="215.358" r="2.6" fill="#2266aa"/>
<line x1="306.154" x2="306.154" y1="231.728" y2="199.433" stroke="#2266aa" stroke-opacity="0.5"/>
<circle cx="306.154" cy="215.554" r="2.6" fill="#2266aa"/>
<line x1="313.462" x2="313.462" y1="233.565" y2="200.137" stroke="#2266aa" stroke-opacity="0.5"/>
<circle cx="313.462" cy="216.432" r="2.6" fill="#2266aa"/>
<line x1="320.769" x2="320.769" y1="232.626" y2="198.688" stroke="#2266aa" stroke-opacity="0.5"/>
<circle cx="320.769" cy="215.137" r="2.6" fill="#2266aa"/>
<line x1="328.077" x2="328.077" y1="232.315" y2="199.701" stroke="#2266aa" stroke-opacity="0.5"/>
<circle cx="328.077" cy="215.575" r="2.6" fill="#2266aa"/>
<line x1="335.385" x2="335.385" y1="232.514" y2="199.500" stroke="#2266aa" stroke-opacity="0.5"/>
<circle cx="335.385" cy="215.685" r="2.6" fill="#2266aa"/>
<line x1="342.692" x2="342.692" y1="233.028" y2="200.371" stroke="#2266aa" stroke-opacity="0.5"/>
<circle cx="342.692" cy="216.156" r="2.6" fill="#2266aa"/>
<line x1="350.000" x2="350.000" y1="232.451" y2="200.115" stroke="#2266aa" stroke-opacity="0.5"/>
<circle cx="350.000" cy="216.045" r="2.6" fill="#2266aa"/>
<text x="65.0" y="314" text-anchor="middle" font-size="11">1</text>
<text x="130.76923076923077" y="314" text-anchor="middle" font-size="11">10</text>
<text x="203.84615384615384" y="314" text-anchor="middle" font-size="11">20</text>
<text x="276.9230769230769" y="314" text-anchor="middle" font-size="11">30</text>
<text x="350.0" y="314" text-anchor="middle" font-size="11">40</text>
<text x="207.5" y="333" text-anchor="middle" font-size="12">Fold</text>
<text x="415" y="87" font-size="15">qs_joint — rₛ</text>
<line x1="415" y1="269.489" x2="700" y2="269.489" stroke="#ddd"/>
<text x="407" y="273.4893159736765" text-anchor="end" font-size="11">0.1</text>
<line x1="415" y1="229.056" x2="700" y2="229.056" stroke="#ddd"/>
<text x="407" y="233.0558384242076" text-anchor="end" font-size="11">0.3</text>
<line x1="415" y1="184.745" x2="700" y2="184.745" stroke="#ddd"/>
<text x="407" y="188.74465798683826" text-anchor="end" font-size="11">1.0</text>
<line x1="415" y1="144.311" x2="700" y2="144.311" stroke="#ddd"/>
<text x="407" y="148.31118043736933" text-anchor="end" font-size="11">3.0</text>
<line x1="415" y1="100.000" x2="700" y2="100.000" stroke="#ddd"/>
<text x="407" y="104.0" text-anchor="end" font-size="11">10.0</text>
<line x1="415" y1="184.74465798683826" x2="700" y2="184.74465798683826" stroke="#555" stroke-dasharray="5 4"/>
<line x1="415.000" x2="415.000" y1="247.861" y2="187.385" stroke="#2266aa" stroke-opacity="0.5"/>
<circle cx="415.000" cy="212.342" r="2.6" fill="#2266aa"/>
<line x1="422.308" x2="422.308" y1="251.315" y2="193.068" stroke="#2266aa" stroke-opacity="0.5"/>
<circle cx="422.308" cy="216.537" r="2.6" fill="#2266aa"/>
<line x1="429.615" x2="429.615" y1="247.302" y2="188.976" stroke="#2266aa" stroke-opacity="0.5"/>
<circle cx="429.615" cy="212.872" r="2.6" fill="#2266aa"/>
<line x1="436.923" x2="436.923" y1="245.136" y2="190.320" stroke="#2266aa" stroke-opacity="0.5"/>
<circle cx="436.923" cy="212.882" r="2.6" fill="#2266aa"/>
<line x1="444.231" x2="444.231" y1="245.542" y2="190.892" stroke="#2266aa" stroke-opacity="0.5"/>
<circle cx="444.231" cy="213.253" r="2.6" fill="#2266aa"/>
<line x1="451.538" x2="451.538" y1="249.393" y2="190.526" stroke="#2266aa" stroke-opacity="0.5"/>
<circle cx="451.538" cy="214.759" r="2.6" fill="#2266aa"/>
<line x1="458.846" x2="458.846" y1="249.417" y2="189.573" stroke="#2266aa" stroke-opacity="0.5"/>
<circle cx="458.846" cy="213.548" r="2.6" fill="#2266aa"/>
<line x1="466.154" x2="466.154" y1="246.107" y2="188.875" stroke="#2266aa" stroke-opacity="0.5"/>
<circle cx="466.154" cy="212.543" r="2.6" fill="#2266aa"/>
<line x1="473.462" x2="473.462" y1="251.695" y2="192.815" stroke="#2266aa" stroke-opacity="0.5"/>
<circle cx="473.462" cy="216.098" r="2.6" fill="#2266aa"/>
<line x1="480.769" x2="480.769" y1="249.890" y2="192.717" stroke="#2266aa" stroke-opacity="0.5"/>
<circle cx="480.769" cy="216.241" r="2.6" fill="#2266aa"/>
<line x1="488.077" x2="488.077" y1="250.217" y2="192.189" stroke="#2266aa" stroke-opacity="0.5"/>
<circle cx="488.077" cy="215.448" r="2.6" fill="#2266aa"/>
<line x1="495.385" x2="495.385" y1="255.595" y2="194.501" stroke="#2266aa" stroke-opacity="0.5"/>
<circle cx="495.385" cy="218.676" r="2.6" fill="#2266aa"/>
<line x1="502.692" x2="502.692" y1="254.165" y2="194.715" stroke="#2266aa" stroke-opacity="0.5"/>
<circle cx="502.692" cy="219.074" r="2.6" fill="#2266aa"/>
<line x1="510.000" x2="510.000" y1="255.620" y2="194.425" stroke="#2266aa" stroke-opacity="0.5"/>
<circle cx="510.000" cy="219.810" r="2.6" fill="#2266aa"/>
<line x1="517.308" x2="517.308" y1="258.425" y2="197.148" stroke="#2266aa" stroke-opacity="0.5"/>
<circle cx="517.308" cy="221.748" r="2.6" fill="#2266aa"/>
<line x1="524.615" x2="524.615" y1="258.068" y2="196.912" stroke="#2266aa" stroke-opacity="0.5"/>
<circle cx="524.615" cy="220.356" r="2.6" fill="#2266aa"/>
<line x1="531.923" x2="531.923" y1="257.967" y2="195.142" stroke="#2266aa" stroke-opacity="0.5"/>
<circle cx="531.923" cy="220.619" r="2.6" fill="#2266aa"/>
<line x1="539.231" x2="539.231" y1="255.757" y2="196.961" stroke="#2266aa" stroke-opacity="0.5"/>
<circle cx="539.231" cy="221.016" r="2.6" fill="#2266aa"/>
<line x1="546.538" x2="546.538" y1="255.694" y2="195.240" stroke="#2266aa" stroke-opacity="0.5"/>
<circle cx="546.538" cy="219.378" r="2.6" fill="#2266aa"/>
<line x1="553.846" x2="553.846" y1="258.543" y2="195.608" stroke="#2266aa" stroke-opacity="0.5"/>
<circle cx="553.846" cy="219.793" r="2.6" fill="#2266aa"/>
<line x1="561.154" x2="561.154" y1="228.364" y2="166.918" stroke="#2266aa" stroke-opacity="0.5"/>
<circle cx="561.154" cy="194.029" r="2.6" fill="#2266aa"/>
<line x1="568.462" x2="568.462" y1="233.228" y2="167.860" stroke="#2266aa" stroke-opacity="0.5"/>
<circle cx="568.462" cy="196.620" r="2.6" fill="#2266aa"/>
<line x1="575.769" x2="575.769" y1="236.389" y2="173.427" stroke="#2266aa" stroke-opacity="0.5"/>
<circle cx="575.769" cy="198.976" r="2.6" fill="#2266aa"/>
<line x1="583.077" x2="583.077" y1="240.119" y2="176.514" stroke="#2266aa" stroke-opacity="0.5"/>
<circle cx="583.077" cy="202.489" r="2.6" fill="#2266aa"/>
<line x1="590.385" x2="590.385" y1="238.973" y2="177.134" stroke="#2266aa" stroke-opacity="0.5"/>
<circle cx="590.385" cy="203.563" r="2.6" fill="#2266aa"/>
<line x1="597.692" x2="597.692" y1="236.714" y2="176.709" stroke="#2266aa" stroke-opacity="0.5"/>
<circle cx="597.692" cy="202.775" r="2.6" fill="#2266aa"/>
<line x1="605.000" x2="605.000" y1="243.510" y2="180.901" stroke="#2266aa" stroke-opacity="0.5"/>
<circle cx="605.000" cy="206.398" r="2.6" fill="#2266aa"/>
<line x1="612.308" x2="612.308" y1="247.606" y2="183.678" stroke="#2266aa" stroke-opacity="0.5"/>
<circle cx="612.308" cy="209.897" r="2.6" fill="#2266aa"/>
<line x1="619.615" x2="619.615" y1="248.601" y2="185.349" stroke="#2266aa" stroke-opacity="0.5"/>
<circle cx="619.615" cy="212.309" r="2.6" fill="#2266aa"/>
<line x1="626.923" x2="626.923" y1="250.401" y2="185.384" stroke="#2266aa" stroke-opacity="0.5"/>
<circle cx="626.923" cy="210.665" r="2.6" fill="#2266aa"/>
<line x1="634.231" x2="634.231" y1="248.259" y2="183.600" stroke="#2266aa" stroke-opacity="0.5"/>
<circle cx="634.231" cy="209.944" r="2.6" fill="#2266aa"/>
<line x1="641.538" x2="641.538" y1="253.191" y2="184.969" stroke="#2266aa" stroke-opacity="0.5"/>
<circle cx="641.538" cy="212.660" r="2.6" fill="#2266aa"/>
<line x1="648.846" x2="648.846" y1="254.513" y2="183.287" stroke="#2266aa" stroke-opacity="0.5"/>
<circle cx="648.846" cy="212.027" r="2.6" fill="#2266aa"/>
<line x1="656.154" x2="656.154" y1="251.764" y2="181.773" stroke="#2266aa" stroke-opacity="0.5"/>
<circle cx="656.154" cy="211.470" r="2.6" fill="#2266aa"/>
<line x1="663.462" x2="663.462" y1="250.690" y2="182.970" stroke="#2266aa" stroke-opacity="0.5"/>
<circle cx="663.462" cy="211.200" r="2.6" fill="#2266aa"/>
<line x1="670.769" x2="670.769" y1="252.153" y2="182.941" stroke="#2266aa" stroke-opacity="0.5"/>
<circle cx="670.769" cy="211.257" r="2.6" fill="#2266aa"/>
<line x1="678.077" x2="678.077" y1="251.673" y2="182.526" stroke="#2266aa" stroke-opacity="0.5"/>
<circle cx="678.077" cy="212.440" r="2.6" fill="#2266aa"/>
<line x1="685.385" x2="685.385" y1="250.910" y2="183.784" stroke="#2266aa" stroke-opacity="0.5"/>
<circle cx="685.385" cy="210.989" r="2.6" fill="#2266aa"/>
<line x1="692.692" x2="692.692" y1="252.032" y2="183.977" stroke="#2266aa" stroke-opacity="0.5"/>
<circle cx="692.692" cy="211.628" r="2.6" fill="#2266aa"/>
<line x1="700.000" x2="700.000" y1="251.869" y2="183.942" stroke="#2266aa" stroke-opacity="0.5"/>
<circle cx="700.000" cy="212.424" r="2.6" fill="#2266aa"/>
<text x="415.0" y="314" text-anchor="middle" font-size="11">1</text>
<text x="480.7692307692308" y="314" text-anchor="middle" font-size="11">10</text>
<text x="553.8461538461538" y="314" text-anchor="middle" font-size="11">20</text>
<text x="626.9230769230769" y="314" text-anchor="middle" font-size="11">30</text>
<text x="700.0" y="314" text-anchor="middle" font-size="11">40</text>
<text x="557.5" y="333" text-anchor="middle" font-size="12">Fold</text>
<text x="765" y="87" font-size="15">qs_joint — rₖ</text>
<line x1="765" y1="269.489" x2="1050" y2="269.489" stroke="#ddd"/>
<text x="757" y="273.4893159736765" text-anchor="end" font-size="11">0.1</text>
<line x1="765" y1="229.056" x2="1050" y2="229.056" stroke="#ddd"/>
<text x="757" y="233.0558384242076" text-anchor="end" font-size="11">0.3</text>
<line x1="765" y1="184.745" x2="1050" y2="184.745" stroke="#ddd"/>
<text x="757" y="188.74465798683826" text-anchor="end" font-size="11">1.0</text>
<line x1="765" y1="144.311" x2="1050" y2="144.311" stroke="#ddd"/>
<text x="757" y="148.31118043736933" text-anchor="end" font-size="11">3.0</text>
<line x1="765" y1="100.000" x2="1050" y2="100.000" stroke="#ddd"/>
<text x="757" y="104.0" text-anchor="end" font-size="11">10.0</text>
<line x1="765" y1="184.74465798683826" x2="1050" y2="184.74465798683826" stroke="#555" stroke-dasharray="5 4"/>
<line x1="772.308" x2="772.308" y1="244.777" y2="123.178" stroke="#2266aa" stroke-opacity="0.5"/>
<circle cx="772.308" cy="183.171" r="2.6" fill="#2266aa"/>
<line x1="779.615" x2="779.615" y1="244.861" y2="126.442" stroke="#2266aa" stroke-opacity="0.5"/>
<circle cx="779.615" cy="187.528" r="2.6" fill="#2266aa"/>
<line x1="786.923" x2="786.923" y1="233.209" y2="116.243" stroke="#2266aa" stroke-opacity="0.5"/>
<circle cx="786.923" cy="169.979" r="2.6" fill="#2266aa"/>
<line x1="794.231" x2="794.231" y1="239.616" y2="116.765" stroke="#2266aa" stroke-opacity="0.5"/>
<circle cx="794.231" cy="175.537" r="2.6" fill="#2266aa"/>
<line x1="801.538" x2="801.538" y1="240.810" y2="134.778" stroke="#2266aa" stroke-opacity="0.5"/>
<circle cx="801.538" cy="188.933" r="2.6" fill="#2266aa"/>
<line x1="808.846" x2="808.846" y1="239.682" y2="123.315" stroke="#2266aa" stroke-opacity="0.5"/>
<circle cx="808.846" cy="180.485" r="2.6" fill="#2266aa"/>
<line x1="816.154" x2="816.154" y1="233.419" y2="118.812" stroke="#2266aa" stroke-opacity="0.5"/>
<circle cx="816.154" cy="173.473" r="2.6" fill="#2266aa"/>
<line x1="823.462" x2="823.462" y1="238.283" y2="126.364" stroke="#2266aa" stroke-opacity="0.5"/>
<circle cx="823.462" cy="182.260" r="2.6" fill="#2266aa"/>
<line x1="830.769" x2="830.769" y1="237.440" y2="122.966" stroke="#2266aa" stroke-opacity="0.5"/>
<circle cx="830.769" cy="181.814" r="2.6" fill="#2266aa"/>
<line x1="838.077" x2="838.077" y1="235.320" y2="125.514" stroke="#2266aa" stroke-opacity="0.5"/>
<circle cx="838.077" cy="179.601" r="2.6" fill="#2266aa"/>
<line x1="845.385" x2="845.385" y1="240.682" y2="138.576" stroke="#2266aa" stroke-opacity="0.5"/>
<circle cx="845.385" cy="188.855" r="2.6" fill="#2266aa"/>
<line x1="852.692" x2="852.692" y1="242.380" y2="149.120" stroke="#2266aa" stroke-opacity="0.5"/>
<circle cx="852.692" cy="195.314" r="2.6" fill="#2266aa"/>
<line x1="860.000" x2="860.000" y1="243.463" y2="160.984" stroke="#2266aa" stroke-opacity="0.5"/>
<circle cx="860.000" cy="198.124" r="2.6" fill="#2266aa"/>
<line x1="867.308" x2="867.308" y1="243.872" y2="159.736" stroke="#2266aa" stroke-opacity="0.5"/>
<circle cx="867.308" cy="197.942" r="2.6" fill="#2266aa"/>
<line x1="874.615" x2="874.615" y1="226.951" y2="166.648" stroke="#2266aa" stroke-opacity="0.5"/>
<circle cx="874.615" cy="192.827" r="2.6" fill="#2266aa"/>
<line x1="881.923" x2="881.923" y1="221.364" y2="162.232" stroke="#2266aa" stroke-opacity="0.5"/>
<circle cx="881.923" cy="189.423" r="2.6" fill="#2266aa"/>
<line x1="889.231" x2="889.231" y1="212.440" y2="155.656" stroke="#2266aa" stroke-opacity="0.5"/>
<circle cx="889.231" cy="182.172" r="2.6" fill="#2266aa"/>
<line x1="896.538" x2="896.538" y1="205.314" y2="159.496" stroke="#2266aa" stroke-opacity="0.5"/>
<circle cx="896.538" cy="182.197" r="2.6" fill="#2266aa"/>
<line x1="903.846" x2="903.846" y1="215.542" y2="166.031" stroke="#2266aa" stroke-opacity="0.5"/>
<circle cx="903.846" cy="190.321" r="2.6" fill="#2266aa"/>
<line x1="918.462" x2="918.462" y1="246.638" y2="126.359" stroke="#2266aa" stroke-opacity="0.5"/>
<circle cx="918.462" cy="185.439" r="2.6" fill="#2266aa"/>
<line x1="925.769" x2="925.769" y1="243.232" y2="125.350" stroke="#2266aa" stroke-opacity="0.5"/>
<circle cx="925.769" cy="184.393" r="2.6" fill="#2266aa"/>
<line x1="933.077" x2="933.077" y1="238.725" y2="122.563" stroke="#2266aa" stroke-opacity="0.5"/>
<circle cx="933.077" cy="178.876" r="2.6" fill="#2266aa"/>
<line x1="940.385" x2="940.385" y1="253.994" y2="140.378" stroke="#2266aa" stroke-opacity="0.5"/>
<circle cx="940.385" cy="202.065" r="2.6" fill="#2266aa"/>
<line x1="947.692" x2="947.692" y1="250.970" y2="136.016" stroke="#2266aa" stroke-opacity="0.5"/>
<circle cx="947.692" cy="198.712" r="2.6" fill="#2266aa"/>
<line x1="955.000" x2="955.000" y1="247.974" y2="129.814" stroke="#2266aa" stroke-opacity="0.5"/>
<circle cx="955.000" cy="192.268" r="2.6" fill="#2266aa"/>
<line x1="962.308" x2="962.308" y1="244.304" y2="128.369" stroke="#2266aa" stroke-opacity="0.5"/>
<circle cx="962.308" cy="185.867" r="2.6" fill="#2266aa"/>
<line x1="969.615" x2="969.615" y1="246.163" y2="130.529" stroke="#2266aa" stroke-opacity="0.5"/>
<circle cx="969.615" cy="191.777" r="2.6" fill="#2266aa"/>
<line x1="976.923" x2="976.923" y1="249.770" y2="140.909" stroke="#2266aa" stroke-opacity="0.5"/>
<circle cx="976.923" cy="196.872" r="2.6" fill="#2266aa"/>
<line x1="984.231" x2="984.231" y1="251.541" y2="159.093" stroke="#2266aa" stroke-opacity="0.5"/>
<circle cx="984.231" cy="202.589" r="2.6" fill="#2266aa"/>
<line x1="991.538" x2="991.538" y1="228.403" y2="151.985" stroke="#2266aa" stroke-opacity="0.5"/>
<circle cx="991.538" cy="190.892" r="2.6" fill="#2266aa"/>
<line x1="998.846" x2="998.846" y1="232.440" y2="161.469" stroke="#2266aa" stroke-opacity="0.5"/>
<circle cx="998.846" cy="197.005" r="2.6" fill="#2266aa"/>
<line x1="1006.154" x2="1006.154" y1="245.698" y2="182.008" stroke="#2266aa" stroke-opacity="0.5"/>
<circle cx="1006.154" cy="208.393" r="2.6" fill="#2266aa"/>
<line x1="1013.462" x2="1013.462" y1="242.980" y2="185.174" stroke="#2266aa" stroke-opacity="0.5"/>
<circle cx="1013.462" cy="209.263" r="2.6" fill="#2266aa"/>
<line x1="1020.769" x2="1020.769" y1="241.650" y2="185.467" stroke="#2266aa" stroke-opacity="0.5"/>
<circle cx="1020.769" cy="207.948" r="2.6" fill="#2266aa"/>
<line x1="1028.077" x2="1028.077" y1="242.960" y2="185.029" stroke="#2266aa" stroke-opacity="0.5"/>
<circle cx="1028.077" cy="208.492" r="2.6" fill="#2266aa"/>
<line x1="1035.385" x2="1035.385" y1="230.069" y2="181.596" stroke="#2266aa" stroke-opacity="0.5"/>
<circle cx="1035.385" cy="203.224" r="2.6" fill="#2266aa"/>
<line x1="1042.692" x2="1042.692" y1="238.237" y2="186.412" stroke="#2266aa" stroke-opacity="0.5"/>
<circle cx="1042.692" cy="208.039" r="2.6" fill="#2266aa"/>
<line x1="1050.000" x2="1050.000" y1="246.633" y2="188.941" stroke="#2266aa" stroke-opacity="0.5"/>
<circle cx="1050.000" cy="211.789" r="2.6" fill="#2266aa"/>
<text x="765.0" y="314" text-anchor="middle" font-size="11">1</text>
<text x="830.7692307692307" y="314" text-anchor="middle" font-size="11">10</text>
<text x="903.8461538461538" y="314" text-anchor="middle" font-size="11">20</text>
<text x="976.9230769230769" y="314" text-anchor="middle" font-size="11">30</text>
<text x="1050.0" y="314" text-anchor="middle" font-size="11">40</text>
<text x="907.5" y="333" text-anchor="middle" font-size="12">Fold</text>
<text x="65" y="357" font-size="15">qs_marketobs — r₀</text>
<line x1="65" y1="539.489" x2="350" y2="539.489" stroke="#ddd"/>
<text x="57" y="543.4893159736765" text-anchor="end" font-size="11">0.1</text>
<line x1="65" y1="499.056" x2="350" y2="499.056" stroke="#ddd"/>
<text x="57" y="503.0558384242076" text-anchor="end" font-size="11">0.3</text>
<line x1="65" y1="454.745" x2="350" y2="454.745" stroke="#ddd"/>
<text x="57" y="458.74465798683826" text-anchor="end" font-size="11">1.0</text>
<line x1="65" y1="414.311" x2="350" y2="414.311" stroke="#ddd"/>
<text x="57" y="418.31118043736933" text-anchor="end" font-size="11">3.0</text>
<line x1="65" y1="370.000" x2="350" y2="370.000" stroke="#ddd"/>
<text x="57" y="374.0" text-anchor="end" font-size="11">10.0</text>
<line x1="65" y1="454.74465798683826" x2="350" y2="454.74465798683826" stroke="#555" stroke-dasharray="5 4"/>
<line x1="65.000" x2="65.000" y1="534.863" y2="502.934" stroke="#b54b20" stroke-opacity="0.5"/>
<circle cx="65.000" cy="518.478" r="2.6" fill="#b54b20"/>
<line x1="72.308" x2="72.308" y1="533.060" y2="500.754" stroke="#b54b20" stroke-opacity="0.5"/>
<circle cx="72.308" cy="517.388" r="2.6" fill="#b54b20"/>
<line x1="79.615" x2="79.615" y1="533.357" y2="501.599" stroke="#b54b20" stroke-opacity="0.5"/>
<circle cx="79.615" cy="517.155" r="2.6" fill="#b54b20"/>
<line x1="86.923" x2="86.923" y1="533.404" y2="501.838" stroke="#b54b20" stroke-opacity="0.5"/>
<circle cx="86.923" cy="517.378" r="2.6" fill="#b54b20"/>
<line x1="94.231" x2="94.231" y1="533.148" y2="502.209" stroke="#b54b20" stroke-opacity="0.5"/>
<circle cx="94.231" cy="517.085" r="2.6" fill="#b54b20"/>
<line x1="101.538" x2="101.538" y1="533.530" y2="501.326" stroke="#b54b20" stroke-opacity="0.5"/>
<circle cx="101.538" cy="517.252" r="2.6" fill="#b54b20"/>
<line x1="108.846" x2="108.846" y1="533.643" y2="501.235" stroke="#b54b20" stroke-opacity="0.5"/>
<circle cx="108.846" cy="517.147" r="2.6" fill="#b54b20"/>
<line x1="116.154" x2="116.154" y1="533.013" y2="501.527" stroke="#b54b20" stroke-opacity="0.5"/>
<circle cx="116.154" cy="517.199" r="2.6" fill="#b54b20"/>
<line x1="123.462" x2="123.462" y1="532.317" y2="501.593" stroke="#b54b20" stroke-opacity="0.5"/>
<circle cx="123.462" cy="516.816" r="2.6" fill="#b54b20"/>
<line x1="130.769" x2="130.769" y1="533.386" y2="501.978" stroke="#b54b20" stroke-opacity="0.5"/>
<circle cx="130.769" cy="517.396" r="2.6" fill="#b54b20"/>
<line x1="138.077" x2="138.077" y1="533.042" y2="501.437" stroke="#b54b20" stroke-opacity="0.5"/>
<circle cx="138.077" cy="517.085" r="2.6" fill="#b54b20"/>
<line x1="145.385" x2="145.385" y1="532.086" y2="500.798" stroke="#b54b20" stroke-opacity="0.5"/>
<circle cx="145.385" cy="516.128" r="2.6" fill="#b54b20"/>
<line x1="152.692" x2="152.692" y1="531.703" y2="500.818" stroke="#b54b20" stroke-opacity="0.5"/>
<circle cx="152.692" cy="516.615" r="2.6" fill="#b54b20"/>
<line x1="160.000" x2="160.000" y1="531.355" y2="500.582" stroke="#b54b20" stroke-opacity="0.5"/>
<circle cx="160.000" cy="516.007" r="2.6" fill="#b54b20"/>
<line x1="167.308" x2="167.308" y1="532.774" y2="500.964" stroke="#b54b20" stroke-opacity="0.5"/>
<circle cx="167.308" cy="516.599" r="2.6" fill="#b54b20"/>
<line x1="174.615" x2="174.615" y1="532.269" y2="501.048" stroke="#b54b20" stroke-opacity="0.5"/>
<circle cx="174.615" cy="516.644" r="2.6" fill="#b54b20"/>
<line x1="181.923" x2="181.923" y1="532.338" y2="500.792" stroke="#b54b20" stroke-opacity="0.5"/>
<circle cx="181.923" cy="516.219" r="2.6" fill="#b54b20"/>
<line x1="189.231" x2="189.231" y1="531.781" y2="500.422" stroke="#b54b20" stroke-opacity="0.5"/>
<circle cx="189.231" cy="516.000" r="2.6" fill="#b54b20"/>
<line x1="196.538" x2="196.538" y1="531.798" y2="500.354" stroke="#b54b20" stroke-opacity="0.5"/>
<circle cx="196.538" cy="515.949" r="2.6" fill="#b54b20"/>
<line x1="203.846" x2="203.846" y1="531.200" y2="500.563" stroke="#b54b20" stroke-opacity="0.5"/>
<circle cx="203.846" cy="515.639" r="2.6" fill="#b54b20"/>
<line x1="211.154" x2="211.154" y1="527.455" y2="497.791" stroke="#b54b20" stroke-opacity="0.5"/>
<circle cx="211.154" cy="513.337" r="2.6" fill="#b54b20"/>
<line x1="218.462" x2="218.462" y1="527.036" y2="497.201" stroke="#b54b20" stroke-opacity="0.5"/>
<circle cx="218.462" cy="512.599" r="2.6" fill="#b54b20"/>
<line x1="225.769" x2="225.769" y1="527.051" y2="496.763" stroke="#b54b20" stroke-opacity="0.5"/>
<circle cx="225.769" cy="511.318" r="2.6" fill="#b54b20"/>
<line x1="233.077" x2="233.077" y1="525.432" y2="495.793" stroke="#b54b20" stroke-opacity="0.5"/>
<circle cx="233.077" cy="511.084" r="2.6" fill="#b54b20"/>
<line x1="240.385" x2="240.385" y1="525.532" y2="495.397" stroke="#b54b20" stroke-opacity="0.5"/>
<circle cx="240.385" cy="510.885" r="2.6" fill="#b54b20"/>
<line x1="247.692" x2="247.692" y1="525.407" y2="495.209" stroke="#b54b20" stroke-opacity="0.5"/>
<circle cx="247.692" cy="510.900" r="2.6" fill="#b54b20"/>
<line x1="255.000" x2="255.000" y1="525.185" y2="495.013" stroke="#b54b20" stroke-opacity="0.5"/>
<circle cx="255.000" cy="510.293" r="2.6" fill="#b54b20"/>
<line x1="262.308" x2="262.308" y1="525.838" y2="495.084" stroke="#b54b20" stroke-opacity="0.5"/>
<circle cx="262.308" cy="510.594" r="2.6" fill="#b54b20"/>
<line x1="269.615" x2="269.615" y1="525.038" y2="495.439" stroke="#b54b20" stroke-opacity="0.5"/>
<circle cx="269.615" cy="510.283" r="2.6" fill="#b54b20"/>
<line x1="276.923" x2="276.923" y1="525.354" y2="495.415" stroke="#b54b20" stroke-opacity="0.5"/>
<circle cx="276.923" cy="510.677" r="2.6" fill="#b54b20"/>
<line x1="284.231" x2="284.231" y1="525.587" y2="495.461" stroke="#b54b20" stroke-opacity="0.5"/>
<circle cx="284.231" cy="510.524" r="2.6" fill="#b54b20"/>
<line x1="291.538" x2="291.538" y1="524.769" y2="495.344" stroke="#b54b20" stroke-opacity="0.5"/>
<circle cx="291.538" cy="510.458" r="2.6" fill="#b54b20"/>
<line x1="298.846" x2="298.846" y1="525.932" y2="495.897" stroke="#b54b20" stroke-opacity="0.5"/>
<circle cx="298.846" cy="510.917" r="2.6" fill="#b54b20"/>
<line x1="306.154" x2="306.154" y1="526.133" y2="495.864" stroke="#b54b20" stroke-opacity="0.5"/>
<circle cx="306.154" cy="510.943" r="2.6" fill="#b54b20"/>
<line x1="313.462" x2="313.462" y1="525.739" y2="494.749" stroke="#b54b20" stroke-opacity="0.5"/>
<circle cx="313.462" cy="510.914" r="2.6" fill="#b54b20"/>
<line x1="320.769" x2="320.769" y1="525.792" y2="495.413" stroke="#b54b20" stroke-opacity="0.5"/>
<circle cx="320.769" cy="510.751" r="2.6" fill="#b54b20"/>
<line x1="328.077" x2="328.077" y1="524.937" y2="494.872" stroke="#b54b20" stroke-opacity="0.5"/>
<circle cx="328.077" cy="510.809" r="2.6" fill="#b54b20"/>
<line x1="335.385" x2="335.385" y1="525.245" y2="495.725" stroke="#b54b20" stroke-opacity="0.5"/>
<circle cx="335.385" cy="510.841" r="2.6" fill="#b54b20"/>
<line x1="342.692" x2="342.692" y1="525.075" y2="496.079" stroke="#b54b20" stroke-opacity="0.5"/>
<circle cx="342.692" cy="510.606" r="2.6" fill="#b54b20"/>
<line x1="350.000" x2="350.000" y1="526.160" y2="495.931" stroke="#b54b20" stroke-opacity="0.5"/>
<circle cx="350.000" cy="511.235" r="2.6" fill="#b54b20"/>
<text x="65.0" y="584" text-anchor="middle" font-size="11">1</text>
<text x="130.76923076923077" y="584" text-anchor="middle" font-size="11">10</text>
<text x="203.84615384615384" y="584" text-anchor="middle" font-size="11">20</text>
<text x="276.9230769230769" y="584" text-anchor="middle" font-size="11">30</text>
<text x="350.0" y="584" text-anchor="middle" font-size="11">40</text>
<text x="207.5" y="603" text-anchor="middle" font-size="12">Fold</text>
<text x="415" y="357" font-size="15">qs_marketobs — rₛ</text>
<line x1="415" y1="539.489" x2="700" y2="539.489" stroke="#ddd"/>
<text x="407" y="543.4893159736765" text-anchor="end" font-size="11">0.1</text>
<line x1="415" y1="499.056" x2="700" y2="499.056" stroke="#ddd"/>
<text x="407" y="503.0558384242076" text-anchor="end" font-size="11">0.3</text>
<line x1="415" y1="454.745" x2="700" y2="454.745" stroke="#ddd"/>
<text x="407" y="458.74465798683826" text-anchor="end" font-size="11">1.0</text>
<line x1="415" y1="414.311" x2="700" y2="414.311" stroke="#ddd"/>
<text x="407" y="418.31118043736933" text-anchor="end" font-size="11">3.0</text>
<line x1="415" y1="370.000" x2="700" y2="370.000" stroke="#ddd"/>
<text x="407" y="374.0" text-anchor="end" font-size="11">10.0</text>
<line x1="415" y1="454.74465798683826" x2="700" y2="454.74465798683826" stroke="#555" stroke-dasharray="5 4"/>
<line x1="415.000" x2="415.000" y1="525.840" y2="493.305" stroke="#b54b20" stroke-opacity="0.5"/>
<circle cx="415.000" cy="509.233" r="2.6" fill="#b54b20"/>
<line x1="422.308" x2="422.308" y1="527.262" y2="494.566" stroke="#b54b20" stroke-opacity="0.5"/>
<circle cx="422.308" cy="510.866" r="2.6" fill="#b54b20"/>
<line x1="429.615" x2="429.615" y1="528.977" y2="495.775" stroke="#b54b20" stroke-opacity="0.5"/>
<circle cx="429.615" cy="511.688" r="2.6" fill="#b54b20"/>
<line x1="436.923" x2="436.923" y1="528.116" y2="496.431" stroke="#b54b20" stroke-opacity="0.5"/>
<circle cx="436.923" cy="512.008" r="2.6" fill="#b54b20"/>
<line x1="444.231" x2="444.231" y1="528.392" y2="496.442" stroke="#b54b20" stroke-opacity="0.5"/>
<circle cx="444.231" cy="512.593" r="2.6" fill="#b54b20"/>
<line x1="451.538" x2="451.538" y1="529.816" y2="497.602" stroke="#b54b20" stroke-opacity="0.5"/>
<circle cx="451.538" cy="512.902" r="2.6" fill="#b54b20"/>
<line x1="458.846" x2="458.846" y1="529.109" y2="496.088" stroke="#b54b20" stroke-opacity="0.5"/>
<circle cx="458.846" cy="513.009" r="2.6" fill="#b54b20"/>
<line x1="466.154" x2="466.154" y1="528.592" y2="496.530" stroke="#b54b20" stroke-opacity="0.5"/>
<circle cx="466.154" cy="512.610" r="2.6" fill="#b54b20"/>
<line x1="473.462" x2="473.462" y1="528.218" y2="495.495" stroke="#b54b20" stroke-opacity="0.5"/>
<circle cx="473.462" cy="511.578" r="2.6" fill="#b54b20"/>
<line x1="480.769" x2="480.769" y1="527.891" y2="495.803" stroke="#b54b20" stroke-opacity="0.5"/>
<circle cx="480.769" cy="511.936" r="2.6" fill="#b54b20"/>
<line x1="488.077" x2="488.077" y1="526.947" y2="495.418" stroke="#b54b20" stroke-opacity="0.5"/>
<circle cx="488.077" cy="511.306" r="2.6" fill="#b54b20"/>
<line x1="495.385" x2="495.385" y1="527.050" y2="494.689" stroke="#b54b20" stroke-opacity="0.5"/>
<circle cx="495.385" cy="510.959" r="2.6" fill="#b54b20"/>
<line x1="502.692" x2="502.692" y1="526.686" y2="494.947" stroke="#b54b20" stroke-opacity="0.5"/>
<circle cx="502.692" cy="510.825" r="2.6" fill="#b54b20"/>
<line x1="510.000" x2="510.000" y1="526.389" y2="494.777" stroke="#b54b20" stroke-opacity="0.5"/>
<circle cx="510.000" cy="510.065" r="2.6" fill="#b54b20"/>
<line x1="517.308" x2="517.308" y1="526.455" y2="494.187" stroke="#b54b20" stroke-opacity="0.5"/>
<circle cx="517.308" cy="510.528" r="2.6" fill="#b54b20"/>
<line x1="524.615" x2="524.615" y1="525.857" y2="493.926" stroke="#b54b20" stroke-opacity="0.5"/>
<circle cx="524.615" cy="510.161" r="2.6" fill="#b54b20"/>
<line x1="531.923" x2="531.923" y1="524.911" y2="493.358" stroke="#b54b20" stroke-opacity="0.5"/>
<circle cx="531.923" cy="509.669" r="2.6" fill="#b54b20"/>
<line x1="539.231" x2="539.231" y1="526.449" y2="493.453" stroke="#b54b20" stroke-opacity="0.5"/>
<circle cx="539.231" cy="509.686" r="2.6" fill="#b54b20"/>
<line x1="546.538" x2="546.538" y1="526.261" y2="493.825" stroke="#b54b20" stroke-opacity="0.5"/>
<circle cx="546.538" cy="509.507" r="2.6" fill="#b54b20"/>
<line x1="553.846" x2="553.846" y1="525.193" y2="493.183" stroke="#b54b20" stroke-opacity="0.5"/>
<circle cx="553.846" cy="509.499" r="2.6" fill="#b54b20"/>
<line x1="561.154" x2="561.154" y1="510.940" y2="470.271" stroke="#b54b20" stroke-opacity="0.5"/>
<circle cx="561.154" cy="488.975" r="2.6" fill="#b54b20"/>
<line x1="568.462" x2="568.462" y1="508.919" y2="469.920" stroke="#b54b20" stroke-opacity="0.5"/>
<circle cx="568.462" cy="488.806" r="2.6" fill="#b54b20"/>
<line x1="575.769" x2="575.769" y1="509.891" y2="470.607" stroke="#b54b20" stroke-opacity="0.5"/>
<circle cx="575.769" cy="489.363" r="2.6" fill="#b54b20"/>
<line x1="583.077" x2="583.077" y1="509.871" y2="469.149" stroke="#b54b20" stroke-opacity="0.5"/>
<circle cx="583.077" cy="488.795" r="2.6" fill="#b54b20"/>
<line x1="590.385" x2="590.385" y1="508.292" y2="469.632" stroke="#b54b20" stroke-opacity="0.5"/>
<circle cx="590.385" cy="488.663" r="2.6" fill="#b54b20"/>
<line x1="597.692" x2="597.692" y1="509.278" y2="470.226" stroke="#b54b20" stroke-opacity="0.5"/>
<circle cx="597.692" cy="489.295" r="2.6" fill="#b54b20"/>
<line x1="605.000" x2="605.000" y1="509.694" y2="471.558" stroke="#b54b20" stroke-opacity="0.5"/>
<circle cx="605.000" cy="489.880" r="2.6" fill="#b54b20"/>
<line x1="612.308" x2="612.308" y1="509.967" y2="470.616" stroke="#b54b20" stroke-opacity="0.5"/>
<circle cx="612.308" cy="489.576" r="2.6" fill="#b54b20"/>
<line x1="619.615" x2="619.615" y1="510.114" y2="471.475" stroke="#b54b20" stroke-opacity="0.5"/>
<circle cx="619.615" cy="490.415" r="2.6" fill="#b54b20"/>
<line x1="626.923" x2="626.923" y1="509.846" y2="471.856" stroke="#b54b20" stroke-opacity="0.5"/>
<circle cx="626.923" cy="490.485" r="2.6" fill="#b54b20"/>
<line x1="634.231" x2="634.231" y1="510.667" y2="473.331" stroke="#b54b20" stroke-opacity="0.5"/>
<circle cx="634.231" cy="490.654" r="2.6" fill="#b54b20"/>
<line x1="641.538" x2="641.538" y1="510.556" y2="473.572" stroke="#b54b20" stroke-opacity="0.5"/>
<circle cx="641.538" cy="491.387" r="2.6" fill="#b54b20"/>
<line x1="648.846" x2="648.846" y1="511.433" y2="473.355" stroke="#b54b20" stroke-opacity="0.5"/>
<circle cx="648.846" cy="492.155" r="2.6" fill="#b54b20"/>
<line x1="656.154" x2="656.154" y1="510.802" y2="473.513" stroke="#b54b20" stroke-opacity="0.5"/>
<circle cx="656.154" cy="491.472" r="2.6" fill="#b54b20"/>
<line x1="663.462" x2="663.462" y1="511.339" y2="474.390" stroke="#b54b20" stroke-opacity="0.5"/>
<circle cx="663.462" cy="492.073" r="2.6" fill="#b54b20"/>
<line x1="670.769" x2="670.769" y1="510.197" y2="473.212" stroke="#b54b20" stroke-opacity="0.5"/>
<circle cx="670.769" cy="491.133" r="2.6" fill="#b54b20"/>
<line x1="678.077" x2="678.077" y1="511.331" y2="473.950" stroke="#b54b20" stroke-opacity="0.5"/>
<circle cx="678.077" cy="491.725" r="2.6" fill="#b54b20"/>
<line x1="685.385" x2="685.385" y1="509.862" y2="473.284" stroke="#b54b20" stroke-opacity="0.5"/>
<circle cx="685.385" cy="491.297" r="2.6" fill="#b54b20"/>
<line x1="692.692" x2="692.692" y1="510.059" y2="473.576" stroke="#b54b20" stroke-opacity="0.5"/>
<circle cx="692.692" cy="491.821" r="2.6" fill="#b54b20"/>
<line x1="700.000" x2="700.000" y1="510.670" y2="473.115" stroke="#b54b20" stroke-opacity="0.5"/>
<circle cx="700.000" cy="491.544" r="2.6" fill="#b54b20"/>
<text x="415.0" y="584" text-anchor="middle" font-size="11">1</text>
<text x="480.7692307692308" y="584" text-anchor="middle" font-size="11">10</text>
<text x="553.8461538461538" y="584" text-anchor="middle" font-size="11">20</text>
<text x="626.9230769230769" y="584" text-anchor="middle" font-size="11">30</text>
<text x="700.0" y="584" text-anchor="middle" font-size="11">40</text>
<text x="557.5" y="603" text-anchor="middle" font-size="12">Fold</text>
<text x="765" y="357" font-size="15">qs_marketobs — rₖ</text>
<line x1="765" y1="539.489" x2="1050" y2="539.489" stroke="#ddd"/>
<text x="757" y="543.4893159736765" text-anchor="end" font-size="11">0.1</text>
<line x1="765" y1="499.056" x2="1050" y2="499.056" stroke="#ddd"/>
<text x="757" y="503.0558384242076" text-anchor="end" font-size="11">0.3</text>
<line x1="765" y1="454.745" x2="1050" y2="454.745" stroke="#ddd"/>
<text x="757" y="458.74465798683826" text-anchor="end" font-size="11">1.0</text>
<line x1="765" y1="414.311" x2="1050" y2="414.311" stroke="#ddd"/>
<text x="757" y="418.31118043736933" text-anchor="end" font-size="11">3.0</text>
<line x1="765" y1="370.000" x2="1050" y2="370.000" stroke="#ddd"/>
<text x="757" y="374.0" text-anchor="end" font-size="11">10.0</text>
<line x1="765" y1="454.74465798683826" x2="1050" y2="454.74465798683826" stroke="#555" stroke-dasharray="5 4"/>
<line x1="772.308" x2="772.308" y1="537.412" y2="447.845" stroke="#b54b20" stroke-opacity="0.5"/>
<circle cx="772.308" cy="493.922" r="2.6" fill="#b54b20"/>
<line x1="779.615" x2="779.615" y1="550.357" y2="480.535" stroke="#b54b20" stroke-opacity="0.5"/>
<circle cx="779.615" cy="509.715" r="2.6" fill="#b54b20"/>
<line x1="786.923" x2="786.923" y1="551.344" y2="484.641" stroke="#b54b20" stroke-opacity="0.5"/>
<circle cx="786.923" cy="512.747" r="2.6" fill="#b54b20"/>
<line x1="794.231" x2="794.231" y1="554.019" y2="486.191" stroke="#b54b20" stroke-opacity="0.5"/>
<circle cx="794.231" cy="516.271" r="2.6" fill="#b54b20"/>
<line x1="801.538" x2="801.538" y1="553.784" y2="488.247" stroke="#b54b20" stroke-opacity="0.5"/>
<circle cx="801.538" cy="517.070" r="2.6" fill="#b54b20"/>
<line x1="808.846" x2="808.846" y1="552.916" y2="488.642" stroke="#b54b20" stroke-opacity="0.5"/>
<circle cx="808.846" cy="516.147" r="2.6" fill="#b54b20"/>
<line x1="816.154" x2="816.154" y1="546.023" y2="483.412" stroke="#b54b20" stroke-opacity="0.5"/>
<circle cx="816.154" cy="508.965" r="2.6" fill="#b54b20"/>
<line x1="823.462" x2="823.462" y1="534.508" y2="478.099" stroke="#b54b20" stroke-opacity="0.5"/>
<circle cx="823.462" cy="499.520" r="2.6" fill="#b54b20"/>
<line x1="830.769" x2="830.769" y1="524.642" y2="474.940" stroke="#b54b20" stroke-opacity="0.5"/>
<circle cx="830.769" cy="494.860" r="2.6" fill="#b54b20"/>
<line x1="838.077" x2="838.077" y1="522.194" y2="475.043" stroke="#b54b20" stroke-opacity="0.5"/>
<circle cx="838.077" cy="494.136" r="2.6" fill="#b54b20"/>
<line x1="845.385" x2="845.385" y1="519.877" y2="475.980" stroke="#b54b20" stroke-opacity="0.5"/>
<circle cx="845.385" cy="495.029" r="2.6" fill="#b54b20"/>
<line x1="852.692" x2="852.692" y1="514.972" y2="475.320" stroke="#b54b20" stroke-opacity="0.5"/>
<circle cx="852.692" cy="493.257" r="2.6" fill="#b54b20"/>
<line x1="860.000" x2="860.000" y1="510.027" y2="475.191" stroke="#b54b20" stroke-opacity="0.5"/>
<circle cx="860.000" cy="491.186" r="2.6" fill="#b54b20"/>
<line x1="867.308" x2="867.308" y1="508.567" y2="475.068" stroke="#b54b20" stroke-opacity="0.5"/>
<circle cx="867.308" cy="489.921" r="2.6" fill="#b54b20"/>
<line x1="874.615" x2="874.615" y1="507.226" y2="476.517" stroke="#b54b20" stroke-opacity="0.5"/>
<circle cx="874.615" cy="490.449" r="2.6" fill="#b54b20"/>
<line x1="881.923" x2="881.923" y1="508.858" y2="480.295" stroke="#b54b20" stroke-opacity="0.5"/>
<circle cx="881.923" cy="493.547" r="2.6" fill="#b54b20"/>
<line x1="889.231" x2="889.231" y1="506.409" y2="479.948" stroke="#b54b20" stroke-opacity="0.5"/>
<circle cx="889.231" cy="492.654" r="2.6" fill="#b54b20"/>
<line x1="896.538" x2="896.538" y1="506.505" y2="480.986" stroke="#b54b20" stroke-opacity="0.5"/>
<circle cx="896.538" cy="492.999" r="2.6" fill="#b54b20"/>
<line x1="903.846" x2="903.846" y1="506.401" y2="481.223" stroke="#b54b20" stroke-opacity="0.5"/>
<circle cx="903.846" cy="492.954" r="2.6" fill="#b54b20"/>
<line x1="918.462" x2="918.462" y1="528.228" y2="418.897" stroke="#b54b20" stroke-opacity="0.5"/>
<circle cx="918.462" cy="477.019" r="2.6" fill="#b54b20"/>
<line x1="925.769" x2="925.769" y1="536.982" y2="458.302" stroke="#b54b20" stroke-opacity="0.5"/>
<circle cx="925.769" cy="493.713" r="2.6" fill="#b54b20"/>
<line x1="933.077" x2="933.077" y1="542.872" y2="471.948" stroke="#b54b20" stroke-opacity="0.5"/>
<circle cx="933.077" cy="503.121" r="2.6" fill="#b54b20"/>
<line x1="940.385" x2="940.385" y1="540.998" y2="473.779" stroke="#b54b20" stroke-opacity="0.5"/>
<circle cx="940.385" cy="500.797" r="2.6" fill="#b54b20"/>
<line x1="947.692" x2="947.692" y1="549.517" y2="481.981" stroke="#b54b20" stroke-opacity="0.5"/>
<circle cx="947.692" cy="509.977" r="2.6" fill="#b54b20"/>
<line x1="955.000" x2="955.000" y1="547.413" y2="482.916" stroke="#b54b20" stroke-opacity="0.5"/>
<circle cx="955.000" cy="509.664" r="2.6" fill="#b54b20"/>
<line x1="962.308" x2="962.308" y1="547.471" y2="483.865" stroke="#b54b20" stroke-opacity="0.5"/>
<circle cx="962.308" cy="508.766" r="2.6" fill="#b54b20"/>
<line x1="969.615" x2="969.615" y1="545.354" y2="486.195" stroke="#b54b20" stroke-opacity="0.5"/>
<circle cx="969.615" cy="509.327" r="2.6" fill="#b54b20"/>
<line x1="976.923" x2="976.923" y1="544.922" y2="486.430" stroke="#b54b20" stroke-opacity="0.5"/>
<circle cx="976.923" cy="509.996" r="2.6" fill="#b54b20"/>
<line x1="984.231" x2="984.231" y1="549.109" y2="490.175" stroke="#b54b20" stroke-opacity="0.5"/>
<circle cx="984.231" cy="513.447" r="2.6" fill="#b54b20"/>
<line x1="991.538" x2="991.538" y1="549.212" y2="493.011" stroke="#b54b20" stroke-opacity="0.5"/>
<circle cx="991.538" cy="514.296" r="2.6" fill="#b54b20"/>
<line x1="998.846" x2="998.846" y1="539.938" y2="491.795" stroke="#b54b20" stroke-opacity="0.5"/>
<circle cx="998.846" cy="511.908" r="2.6" fill="#b54b20"/>
<line x1="1006.154" x2="1006.154" y1="540.142" y2="493.757" stroke="#b54b20" stroke-opacity="0.5"/>
<circle cx="1006.154" cy="512.322" r="2.6" fill="#b54b20"/>
<line x1="1013.462" x2="1013.462" y1="536.037" y2="494.063" stroke="#b54b20" stroke-opacity="0.5"/>
<circle cx="1013.462" cy="511.141" r="2.6" fill="#b54b20"/>
<line x1="1020.769" x2="1020.769" y1="530.815" y2="494.456" stroke="#b54b20" stroke-opacity="0.5"/>
<circle cx="1020.769" cy="509.805" r="2.6" fill="#b54b20"/>
<line x1="1028.077" x2="1028.077" y1="532.406" y2="495.705" stroke="#b54b20" stroke-opacity="0.5"/>
<circle cx="1028.077" cy="511.219" r="2.6" fill="#b54b20"/>
<line x1="1035.385" x2="1035.385" y1="530.473" y2="495.506" stroke="#b54b20" stroke-opacity="0.5"/>
<circle cx="1035.385" cy="510.355" r="2.6" fill="#b54b20"/>
<line x1="1042.692" x2="1042.692" y1="530.738" y2="495.912" stroke="#b54b20" stroke-opacity="0.5"/>
<circle cx="1042.692" cy="510.924" r="2.6" fill="#b54b20"/>
<line x1="1050.000" x2="1050.000" y1="530.469" y2="498.902" stroke="#b54b20" stroke-opacity="0.5"/>
<circle cx="1050.000" cy="512.652" r="2.6" fill="#b54b20"/>
<text x="765.0" y="584" text-anchor="middle" font-size="11">1</text>
<text x="830.7692307692307" y="584" text-anchor="middle" font-size="11">10</text>
<text x="903.8461538461538" y="584" text-anchor="middle" font-size="11">20</text>
<text x="976.9230769230769" y="584" text-anchor="middle" font-size="11">30</text>
<text x="1050.0" y="584" text-anchor="middle" font-size="11">40</text>
<text x="907.5" y="603" text-anchor="middle" font-size="12">Fold</text>
</g></svg>
