<svg xmlns="http://www.w3.org/2000/svg" width="800" height="450" viewBox="0 0 800 450"><rect width="800" height="450" fill="white"/>
<text x="70" y="30" font-family="sans-serif" font-size="19">eng_league_two</text>
<path d="M70 65V350H720" fill="none" stroke="black"/>
<path d="M70 218.0670276147101H720" stroke="#aaa" stroke-dasharray="5 5"/>
<path d="M112.66666666666666 288.4598861772235V97.02656081396631" stroke="#2866a0"/><circle cx="112.66666666666666" cy="192.74322349559492" r="5" fill="#2866a0"/>
<text x="107.66666666666666" y="370" font-family="sans-serif" font-size="12">-7</text><text x="102.66666666666666" y="180.74322349559492" font-family="sans-serif" font-size="10">n=3</text>
<path d="M155.33333333333331 180.57730672227606V119.8138035721675" stroke="#2866a0"/><circle cx="155.33333333333331" cy="150.1955551472218" r="5" fill="#2866a0"/>
<text x="150.33333333333331" y="370" font-family="sans-serif" font-size="12">-6</text><text x="145.33333333333331" y="138.1955551472218" font-family="sans-serif" font-size="10">n=5</text>
<path d="M198.0 183.36542037332458V127.07363118737459" stroke="#2866a0"/><circle cx="198.0" cy="155.21952578034958" r="5" fill="#2866a0"/>
<text x="193.0" y="370" font-family="sans-serif" font-size="12">-5</text><text x="188.0" y="143.21952578034958" font-family="sans-serif" font-size="10">n=27</text>
<path d="M240.66666666666666 194.22484847763064V146.71093186639126" stroke="#2866a0"/><circle cx="240.66666666666666" cy="170.46789017201095" r="5" fill="#2866a0"/>
<text x="235.66666666666666" y="370" font-family="sans-serif" font-size="12">-4</text><text x="230.66666666666666" y="158.46789017201095" font-family="sans-serif" font-size="10">n=55</text>
<path d="M283.33333333333337 183.82669696197155V157.0343613897566" stroke="#2866a0"/><circle cx="283.33333333333337" cy="170.43052917586405" r="5" fill="#2866a0"/>
<text x="278.33333333333337" y="370" font-family="sans-serif" font-size="12">-3</text><text x="273.33333333333337" y="158.43052917586405" font-family="sans-serif" font-size="10">n=125</text>
<path d="M326.0 202.5558424585306V181.35620654220472" stroke="#2866a0"/><circle cx="326.0" cy="191.95602450036768" r="5" fill="#2866a0"/>
<text x="321.0" y="370" font-family="sans-serif" font-size="12">-2</text><text x="316.0" y="179.95602450036768" font-family="sans-serif" font-size="10">n=228</text>
<path d="M368.6666666666667 211.97411863177194V194.67954424247225" stroke="#2866a0"/><circle cx="368.6666666666667" cy="203.32683143712208" r="5" fill="#2866a0"/>
<text x="363.6666666666667" y="370" font-family="sans-serif" font-size="12">-1</text><text x="358.6666666666667" y="191.32683143712208" font-family="sans-serif" font-size="10">n=347</text>
<path d="M411.3333333333333 234.9559423453805V218.09125964483658" stroke="#2866a0"/><circle cx="411.3333333333333" cy="226.52360099510855" r="5" fill="#2866a0"/>
<text x="406.3333333333333" y="370" font-family="sans-serif" font-size="12">0</text><text x="401.3333333333333" y="214.52360099510855" font-family="sans-serif" font-size="10">n=370</text>
<path d="M454.0 234.6849407344195V218.10575160603952" stroke="#2866a0"/><circle cx="454.0" cy="226.39534617022952" r="5" fill="#2866a0"/>
<text x="449.0" y="370" font-family="sans-serif" font-size="12">1</text><text x="444.0" y="214.39534617022952" font-family="sans-serif" font-size="10">n=326</text>
<path d="M496.6666666666667 259.0348014964997V234.22885815863546" stroke="#2866a0"/><circle cx="496.6666666666667" cy="246.63182982756757" r="5" fill="#2866a0"/>
<text x="491.6666666666667" y="370" font-family="sans-serif" font-size="12">2</text><text x="486.6666666666667" y="234.63182982756757" font-family="sans-serif" font-size="10">n=220</text>
<path d="M539.3333333333333 264.0878713691139V234.25488786608022" stroke="#2866a0"/><circle cx="539.3333333333333" cy="249.17137961759707" r="5" fill="#2866a0"/>
<text x="534.3333333333333" y="370" font-family="sans-serif" font-size="12">3</text><text x="529.3333333333333" y="237.17137961759707" font-family="sans-serif" font-size="10">n=138</text>
<path d="M582.0 300.33419167899115V254.64260130214302" stroke="#2866a0"/><circle cx="582.0" cy="277.4883964905671" r="5" fill="#2866a0"/>
<text x="577.0" y="370" font-family="sans-serif" font-size="12">4</text><text x="572.0" y="265.4883964905671" font-family="sans-serif" font-size="10">n=59</text>
<path d="M624.6666666666666 322.9734391860337V212.36372263134436" stroke="#2866a0"/><circle cx="624.6666666666666" cy="267.668580908689" r="5" fill="#2866a0"/>
<text x="619.6666666666666" y="370" font-family="sans-serif" font-size="12">5</text><text x="614.6666666666666" y="255.66858090868902" font-family="sans-serif" font-size="10">n=22</text>
<path d="M667.3333333333334 296.6015107772266V235.79427432562122" stroke="#2866a0"/><circle cx="667.3333333333334" cy="266.19789255142393" r="5" fill="#2866a0"/>
<text x="662.3333333333334" y="370" font-family="sans-serif" font-size="12">6</text><text x="657.3333333333334" y="254.19789255142393" font-family="sans-serif" font-size="10">n=5</text>
<text x="10" y="354.0" font-family="sans-serif" font-size="12">-0.24</text>
<text x="10" y="284.0" font-family="sans-serif" font-size="12">-0.11</text>
<text x="10" y="214.0" font-family="sans-serif" font-size="12">0.01</text>
<text x="10" y="143.99999999999997" font-family="sans-serif" font-size="12">0.14</text>
<text x="10" y="74.0" font-family="sans-serif" font-size="12">0.27</text>
<text x="180" y="405" font-family="sans-serif" font-size="15">Missing regulars: home minus away</text><text x="70" y="435" font-family="sans-serif" font-size="12">Team-season residual log supremacy; bars: descriptive 95% mean intervals</text></svg>
